<!DOCTYPE svg PUBLIC "-//W3C//DTD SVG 1.1//EN" "http://www.w3.org/Graphics/SVG/1.1/DTD/svg11.dtd">
<!-- Uploaded to: SVG Repo, www.svgrepo.com, Transformed by: SVG Repo Mixer Tools -->
<svg version="1.1" id="Layer_1" xmlns="http://www.w3.org/2000/svg" xmlns:xlink="http://www.w3.org/1999/xlink" viewBox="-51.2 -51.2 614.40 614.40" xml:space="preserve" width="800px" height="800px" fill="#000000">
<g id="SVGRepo_bgCarrier" stroke-width="0"/>
<g id="SVGRepo_tracerCarrier" stroke-linecap="round" stroke-linejoin="round"/>
<g id="SVGRepo_iconCarrier"> <circle style="fill:#b18d2b;" cx="256.005" cy="256.005" r="219.73"/> <g style="opacity:0.25;"> <path style="fill:#666666;" d="M256,16c132.549,0,240,107.451,240,240S388.549,496,256,496S16,388.549,16,256 C16.15,123.514,123.514,16.15,256,16 M256,0C114.616,0,0,114.616,0,256s114.616,256,256,256s256-114.615,256-256S397.385,0,256,0z"/> </g> <g> <path style="fill:#FFFFFF;" d="M261.424,91.752l-123.24,82.648h246.48L261.424,91.752z M261.424,152.744 c-7.512,0-13.6-6.089-13.6-13.6s6.089-13.6,13.6-13.6s13.6,6.089,13.6,13.6c-0.004,7.508-6.092,13.592-13.6,13.592V152.744z"/> <rect x="128.935" y="322.357" style="fill:#FFFFFF;" width="264.965" height="25.825"/> <path style="fill:#FFFFFF;" d="M257.673,290.016v-10.584c-5.671-0.019-11.226-1.617-16.04-4.616l2.512-7.032 c4.495,2.922,9.735,4.489,15.096,4.512c7.44,0,12.48-4.296,12.48-10.272c0-5.768-4.088-9.328-11.856-12.48 c-10.696-4.192-17.296-9.016-17.296-18.136c0.129-8.872,6.987-16.191,15.832-16.896v-10.576h6.496v10.168 c4.772,0.045,9.454,1.309,13.6,3.672l-2.632,6.92c-3.992-2.38-8.561-3.615-13.208-3.568c-8.08,0-11.12,4.8-11.12,9.016 c0,5.456,3.88,8.185,13.008,11.952c10.799,4.408,16.248,9.856,16.248,19.2c-0.173,9.296-7.31,16.973-16.568,17.824v10.904h-6.6 L257.673,290.016z"/> <rect x="156.003" y="196.994" style="fill:#FFFFFF;" width="25.824" height="101.492"/> <rect x="196.027" y="196.994" style="fill:#FFFFFF;" width="25.824" height="101.492"/> <rect x="301.003" y="196.994" style="fill:#FFFFFF;" width="25.825" height="101.492"/> <rect x="341.018" y="196.994" style="fill:#FFFFFF;" width="25.825" height="101.492"/> </g> </g>
</svg>